<?xml version="1.0" encoding="UTF-8" standalone="no"?>
<svg
   height="48"
   width="48"
   viewBox="-35.20005 -41.33325 48 48"
   version="1.1"
   id="svg2"
   xmlns="http://www.w3.org/2000/svg"
   xmlns:svg="http://www.w3.org/2000/svg">
  <defs
     id="defs2" />
  <path
     d="m 9.9047308,-28.504693 c -0.50471,-1.900284 -1.991539,-3.396836 -3.879855,-3.904726 -3.421894,-0.923027 -17.1444398,-0.923027 -17.1444398,-0.923027 0,0 -13.722358,0 -17.14444,0.923027 -1.888315,0.50789 -3.375518,2.004442 -3.879854,3.904726 -0.916856,3.444334 -0.916856,10.630891 -0.916856,10.630891 0,0 0,7.186184 0.916856,10.6308919 0.504336,1.90047 1.991539,3.396649 3.879667,3.905099 3.422082,0.922653 17.14444,0.922653 17.14444,0.922653 0,0 13.7225458,0 17.1444398,-0.922653 1.888316,-0.508263 3.375145,-2.004629 3.879855,-3.904912 0.9170432,-3.4447079 0.9170432,-10.6308919 0.9170432,-10.6308919 0,0 0,-7.186557 -0.9170432,-10.630891"
     fill="#ff0000"
     id="path1"
     style="stroke-width:0.186999" />
  <path
     d="M -15.607539,-11.349034 -4.1383312,-17.873428 -15.607539,-24.39857 Z"
     fill="#ffffff"
     id="path2"
     style="stroke-width:0.186999" />
</svg>
