<?xml version="1.0" encoding="UTF-8" standalone="no"?>
<svg
   width="48"
   height="48"
   version="1.1"
   id="svg1"
   xmlns="http://www.w3.org/2000/svg"
   xmlns:svg="http://www.w3.org/2000/svg">
  <defs
     id="defs1" />
  <path
     fill-rule="evenodd"
     clip-rule="evenodd"
     d="m 23.944499,2.1497424 c -12.234822,0 -22.1254862,9.9635796 -22.1254862,22.2898856 0,9.853074 6.3372893,18.193496 15.1287892,21.145433 1.099164,0.221916 1.501783,-0.479611 1.501783,-1.069726 0,-0.516748 -0.03623,-2.288 -0.03623,-4.133527 -6.154775,1.328779 -7.436454,-2.657105 -7.436454,-2.657105 -0.9891122,-2.583285 -2.4546638,-3.247221 -2.4546638,-3.247221 -2.0144546,-1.365464 0.1467363,-1.365464 0.1467363,-1.365464 2.2345595,0.147642 3.4070915,2.288 3.4070915,2.288 1.97777,3.394864 5.164757,2.435643 6.446889,1.845074 0.182967,-1.439284 0.76946,-2.435642 1.392183,-2.989074 C 15.006263,33.739271 9.8415058,31.820376 9.8415058,23.258491 c 0,-2.435642 0.8786062,-4.428358 2.2707902,-5.978147 -0.219652,-0.553432 -0.989112,-2.841885 0.220105,-5.90478 0,0 1.868171,-0.590568 6.0805,2.288001 a 21.272242,21.272242 0 0 1 5.531598,-0.738211 c 1.868171,0 3.772574,0.2586 5.531145,0.738211 4.212783,-2.878569 6.080954,-2.288001 6.080954,-2.288001 1.209216,3.062895 0.439303,5.351348 0.219652,5.90478 1.428867,1.549789 2.271243,3.542505 2.271243,5.978147 0,8.561885 -5.164757,10.443643 -10.110316,10.997527 0.806144,0.701074 1.501783,2.0294 1.501783,4.133074 0,2.989074 -0.03623,5.388032 -0.03623,6.12579 0,0.590568 0.403072,1.292095 1.501783,1.070632 8.7915,-2.952843 15.12879,-11.292812 15.12879,-21.145886 C 46.069533,12.113322 36.142638,2.1497424 23.944499,2.1497424 Z"
     fill="#ffffff"
     id="path1"
     style="stroke-width:0.45289" />
</svg>
